# xmcd
#
# Track frame offsets:
# 150
# 9947
# 24180
# 38482
# 55938
# 65838
# 79555
# 92050
# 105211
# 116221
# 129382
# 139357
# 151193
# 161386
# 171530
# 183266
# 191364
# 204257
#
# Disc length: 2872 seconds
#
#
# Revision: 0
# Processed by: cddbd v1.5.2PL0 Copyright (c) Steve Scherf et al.
# Submitted via: FreeRIP 2.70 
#
DISCID=dc0b3612
DTITLE=Joy Adams - The Essential Collection
DYEAR=2008
DGENRE=Country
TTITLE0=I Know You Don't Love Me No More
TTITLE1=Two Minus One
TTITLE2=Too Old To Cut The Mustard
TTITLE3=Best Mum In The World
TTITLE4=I Don't Care
TTITLE5=Just A Matter Of Time
TTITLE6=The Snorer
TTITLE7=Silver Dew On The Bluegrass Tonight
TTITLE8=Joy's Yodel
TTITLE9=You Crossed My Mind A Thousand Times Today
TTITLE10=The Old Heart
TTITLE11=I Overlooked An Orchid
TTITLE12=But Wait, There's More
TTITLE13=Don't Fence Me In
TTITLE14=Love Is No Excuse
TTITLE15=Why Don't We Admit We're In Love
TTITLE16=Still Gonna Die
TTITLE17=Waltz Across Texas
EXTD=
EXTT0=
EXTT1=
EXTT2=
EXTT3=
EXTT4=
EXTT5=
EXTT6=
EXTT7=
EXTT8=
EXTT9=
EXTT10=
EXTT11=
EXTT12=
EXTT13=
EXTT14=
EXTT15=
EXTT16=
EXTT17=
PLAYORDER=
